<?xml version="1.0" standalone="no"?>
<!DOCTYPE svg PUBLIC "-//W3C//DTD SVG 20010904//EN"
 "http://www.w3.org/TR/2001/REC-SVG-20010904/DTD/svg10.dtd">
<svg version="1.0" xmlns="http://www.w3.org/2000/svg"
 width="260.000000pt" height="260.000000pt" viewBox="0 0 260.000000 260.000000"
 preserveAspectRatio="xMidYMid meet">
<metadata>
Created by potrace 1.11, written by Peter Selinger 2001-2013
</metadata>
<g transform="translate(0.000000,260.000000) scale(0.100000,-0.100000)"
fill="#000000" stroke="none">
<path d="M0 1300 l0 -1300 1300 0 1300 0 0 1300 0 1300 -1300 0 -1300 0 0
-1300z m2265 490 l-110 -110 -130 130 -130 130 110 110 110 110 130 -130 130
-130 -110 -110z m-848 -468 l-427 -427 37 -38 38 -37 427 427 428 428 57 -58
58 -57 -563 -563 -563 -562 -226 -102 c-125 -57 -228 -101 -230 -99 -2 2 42
107 98 232 l101 229 562 562 561 563 35 -35 35 -35 -428 -428z"/>
<path d="M822 717 c-36 -37 -64 -80 -96 -149 -25 -54 -41 -98 -36 -98 5 0 51
19 102 42 65 29 109 57 146 92 28 28 52 54 52 58 0 4 -11 8 -24 8 -14 0 -36 4
-50 10 -21 8 -26 16 -26 44 0 19 -4 37 -8 40 -5 3 -32 -18 -60 -47z"/>
</g>
</svg>
